<svg width="14" height="12" viewBox="0 0 14 12" fill="none" xmlns="http://www.w3.org/2000/svg">
<path d="M3.55833 11.8417V10.0042H5.67292V8.79375C5.19653 8.65764 4.76389 8.44618 4.375 8.15938C3.98611 7.87257 3.67986 7.51042 3.45625 7.07292C2.49375 7.12153 1.67708 6.79826 1.00625 6.10313C0.335417 5.40799 0 4.56944 0 3.5875V3.00417C0 2.48889 0.177431 2.05382 0.532292 1.69896C0.887153 1.3441 1.32222 1.16667 1.8375 1.16667H3.00417V0H10.1792V1.16667H11.3458C11.8611 1.16667 12.2962 1.3441 12.651 1.69896C13.0059 2.05382 13.1833 2.48889 13.1833 3.00417V3.5875C13.1833 4.56944 12.8479 5.40799 12.1771 6.10313C11.5062 6.79826 10.6896 7.12153 9.72708 7.07292C9.50347 7.51042 9.19722 7.87257 8.80833 8.15938C8.41944 8.44618 7.98681 8.65764 7.51042 8.79375V10.0042H9.625V11.8417H3.55833ZM3.00417 5.22083V3.00417H1.8375V3.5875C1.8375 3.95694 1.94444 4.28993 2.15833 4.58646C2.37222 4.88299 2.65417 5.09444 3.00417 5.22083ZM6.59167 7.0875C7.07778 7.0875 7.49097 6.91736 7.83125 6.57708C8.17153 6.23681 8.34167 5.82361 8.34167 5.3375V1.8375H4.84167V5.3375C4.84167 5.82361 5.01181 6.23681 5.35208 6.57708C5.69236 6.91736 6.10556 7.0875 6.59167 7.0875ZM10.1792 5.22083C10.5292 5.09444 10.8111 4.88299 11.025 4.58646C11.2389 4.28993 11.3458 3.95694 11.3458 3.5875V3.00417H10.1792V5.22083Z" fill="white"/>
</svg>
