<svg width="20" height="16" viewBox="0 0 20 16" fill="none" xmlns="http://www.w3.org/2000/svg">
<path d="M12 14C13.6667 14 15.0833 13.4167 16.25 12.25C17.4167 11.0833 18 9.66667 18 8C18 6.31667 17.3875 4.89583 16.1625 3.7375C14.9375 2.57917 13.4667 2 11.75 2C10.95 2 10.175 2.09167 9.425 2.275C8.675 2.45833 7.95 2.73333 7.25 3.1L9.75 4.1C10.4333 4.38333 10.9792 4.82083 11.3875 5.4125C11.7958 6.00417 12 6.66667 12 7.4C12 8.4 11.6542 9.25 10.9625 9.95C10.2708 10.65 9.43333 11 8.45 11H2.05C2.01667 11.4 2 11.8542 2 12.3625C2 12.8708 2 13.4167 2 14H12ZM2.4 9H8.4C8.85 9 9.22917 8.84583 9.5375 8.5375C9.84583 8.22917 10 7.85 10 7.4C10 7.08333 9.9125 6.79583 9.7375 6.5375C9.5625 6.27917 9.31667 6.08333 9 5.95L5.3 4.45C4.6 5.06667 4.00417 5.76667 3.5125 6.55C3.02083 7.33333 2.65 8.15 2.4 9ZM12 16H2C1.45 16 0.979167 15.8042 0.5875 15.4125C0.195833 15.0208 0 14.55 0 14V11.75C0 10.1167 0.308333 8.5875 0.925 7.1625C1.54167 5.7375 2.37917 4.49583 3.4375 3.4375C4.49583 2.37917 5.74167 1.54167 7.175 0.925C8.60833 0.308333 10.1333 0 11.75 0C12.8833 0 13.95 0.208333 14.95 0.625C15.95 1.04167 16.825 1.6125 17.575 2.3375C18.325 3.0625 18.9167 3.90833 19.35 4.875C19.7833 5.84167 20 6.88333 20 8C20 9.1 19.7917 10.1375 19.375 11.1125C18.9583 12.0875 18.3875 12.9375 17.6625 13.6625C16.9375 14.3875 16.0875 14.9583 15.1125 15.375C14.1375 15.7917 13.1 16 12 16Z" fill="#94A3B8"/>
</svg>
