<svg width="12" height="14" viewBox="0 0 12 14" fill="none" xmlns="http://www.w3.org/2000/svg">
<path d="M3.33333 1.66667H5V0H3.33333V1.66667ZM6.66667 1.66667V0H8.33333V1.66667H6.66667ZM3.33333 8.33333V6.66667H5V8.33333H3.33333ZM10 5V3.33333H11.6667V5H10ZM10 8.33333V6.66667H11.6667V8.33333H10ZM6.66667 8.33333V6.66667H8.33333V8.33333H6.66667ZM10 1.66667V0H11.6667V1.66667H10ZM5 3.33333V1.66667H6.66667V3.33333H5ZM0 13.3333V0H1.66667V1.66667H3.33333V3.33333H1.66667V5H3.33333V6.66667H1.66667V13.3333H0ZM8.33333 6.66667V5H10V6.66667H8.33333ZM5 6.66667V5H6.66667V6.66667H5ZM3.33333 5V3.33333H5V5H3.33333ZM6.66667 5V3.33333H8.33333V5H6.66667ZM8.33333 3.33333V1.66667H10V3.33333H8.33333Z" fill="white"/>
</svg>
